<?xml version="1.0" encoding="utf-8"?>
<!-- Generator: Adobe Illustrator 16.0.0, SVG Export Plug-In . SVG Version: 6.00 Build 0)  -->
<!DOCTYPE svg PUBLIC "-//W3C//DTD SVG 1.1//EN" "http://www.w3.org/Graphics/SVG/1.1/DTD/svg11.dtd">
<svg version="1.1" id="Layer_1" xmlns="http://www.w3.org/2000/svg" xmlns:xlink="http://www.w3.org/1999/xlink" x="0px" y="0px"
	 width="3028.216px" height="4516.956px" viewBox="0 0 3028.216 4516.956" enable-background="new 0 0 3028.216 4516.956"
	 xml:space="preserve">
<g>
	<path d="M3028.216,1248.997c0,43.366,0,86.738,0,130.104c-1.461,8.406-3.258,16.771-4.33,25.228
		c-14.006,110.568-26.971,221.278-42.286,331.663c-6.386,46.034-24.39,91.21-25.548,137.066
		c-3.393,134.083-0.613,268.309-1.251,402.473c-0.081,17.361,5.489,24.699,21.966,27.647c27.507,4.925,47.998,18.393,51.449,49.099
		c0,15.612,0,31.225,0,46.838c-7.001,47.01-11.084,94.691-21.678,140.878c-16.41,71.531-36.633,142.225-56.644,212.872
		c-5.504,19.424-17.106,37.953-39.802,40.18c-18.461,1.814-21.035,12.283-24.62,26.966
		c-45.778,187.518-90.358,375.36-139.328,562.049c-22.732,86.671-48.141,173.658-83.256,255.842
		c-63.724,149.137-156.882,281.237-259.847,405.97c-128.023,155.088-276.015,287.865-451.872,386.738
		c-108.154,60.809-225.687,90.514-350.046,75.109c-64.056-7.938-127.66-23.703-189.888-41.465
		c-234.576-66.958-455.392-164.241-643.7-322.088c-244.004-204.543-420.245-461.106-555.031-747.619
		c-53.115-112.906-79.521-230.325-62.959-355.723c25.967-196.625,51.804-393.27,76.351-590.076
		c12.112-97.111,23.951-194.419,30.363-292.002c2.653-40.373-0.293-85.756-16.571-121.667
		c-25.85-57.017-62.583-109.739-99.282-161.008c-32.867-45.917-72.329-86.798-135.572-92.419c0-7.293-0.103-13.254,0.015-19.211
		c4.553-229.008,18.25-457.381,53.443-683.909c23.029-148.242,53.72-294.889,113.379-433.637
		c34.57-80.4,77.587-155.184,150.01-208.486c128.015-94.218,262.657-177.622,406.045-246.45
		c183.12-87.901,373.903-151.108,576.416-175.183C1354.818,8.751,1405.749,4.869,1456.562,0c26.021,0,52.042,0,78.062,0
		c8.498,1.327,16.967,2.907,25.5,3.949c75.573,9.229,152.213,13.204,226.561,28.395c373.723,76.375,695.735,248.895,958.784,527.027
		c139.587,147.592,236.718,317.545,264.167,522.098C3017.106,1137.138,3022.092,1193.144,3028.216,1248.997z M1771.095,2244.931
		c79.561,0,159.196,0.081,238.83-0.203c4.862-0.021,10.189-2.16,14.5-4.681c59.367-34.722,124.777-43.549,191.003-36.851
		c177.581,17.96,354.863,38.929,532.198,59.279c42.752,4.904,85.251,12.029,133.902,18.997c0-44.327-1.865-85.803,0.336-127.064
		c7.801-146.24,12.726-292.815,26.742-438.491c17.219-178.984,26.547-357.953,19.727-537.466
		c-1.648-43.381-12.84-87.261-25.614-129.087c-10.088-33.034-29.683-38.945-63.428-34.066c-30.793,4.452-62.147,10.424-92.89,8.803
		c-92.488-4.869-185.454-8.381-277.043-21.025c-192.291-26.56-378.727-76.502-552.336-165.649
		c-122.326-62.815-250.271-105.668-386.697-122.328c-113.027-13.803-225.178-11.989-333.487,28.517
		c-104.2,38.97-173.78,108.88-190.918,222.676c-4.122,27.372-4.739,55.253-7.763,82.814
		c-10.201,92.989-18.245,186.308-31.925,278.788c-12.361,83.561-57.113,146.514-138.206,177.79
		c-33.811,13.046-60.001,34.178-81.782,61.754c-100.947,127.791-166.196,274.966-232.18,424.941
		c61.878,18.336,121.446,36.261,181.191,53.576c31.519,9.138,62.94,22.433,95.098,24.923
		c222.103,17.203,444.514,30.509,666.546,48.53c74.845,6.078,149.387,19.673,223.091,34.64
		C1726.559,2163.504,1760.235,2193.098,1771.095,2244.931z M2470.66,3628.443c80.069-82.331,157.456-161.634,234.291-241.47
		c5.558-5.773,8.317-15.114,10.321-23.297c29.261-119.38,59.186-238.618,86.771-358.39c15.473-67.177,26.94-135.283,39.93-201.519
		c-98.189-8.538-193.666-12.37-287.691-26.123c-122.32-17.894-243.403-44.139-365.182-65.88
		c-79.622-14.22-118.24-63.883-129.001-141.117c-6.926-49.703-15.476-99.285-26.108-148.312
		c-2.905-13.402-13.291-30.834-24.81-35.779c-66.591-28.566-136.521-36.963-208.473-25.472c-26.211,4.188-41.3,19.562-47.528,45.018
		c-8.434,34.463-16.318,69.128-26.441,103.107c-26.152,87.8-86.471,134.495-176.746,145.035
		c-136.674,15.953-273.71,15.095-410.22,2.623c-78.108-7.136-155.849-22.215-232.603-38.991
		c-61.014-13.335-100.019-56.305-121.984-114.196c-21.462-56.564-26.379-115.528-13.763-173.938
		c7.1-32.866-4.998-51.31-28.822-67.486c-12.874-8.741-25.718-18.326-39.965-24.11c-66.479-27.006-133.357-53.033-200.295-78.891
		c-14.919-5.763-30.646-9.438-46.447-14.205c-2.521,6.357-3.853,9.463-4.997,12.639c-53.858,149.35-97.746,301.48-122.579,458.479
		c-15.61,98.681-26.992,198.449-5.597,297.379c14.412,66.637,36.687,131.572,55.327,197.3
		c18.106,63.853,51.086,119.192,96.39,167.25c74.136,78.646,164.292,135.073,258.905,185.153c1.92,1.017,4.85,0.133,8.362,0.133
		c0.811-8.01,1.485-15.664,2.374-23.292c18.352-157.71,116.145-314.394,339.716-294.629c198.51,17.548,397.784,26.447,596.71,39.311
		c161.736,10.459,323.633,19.094,485.093,32.841c55.382,4.711,111.347,17.519,163.991,35.545
		c62.385,21.36,93.273,71.689,95.898,138.123c1.472,37.253,1.527,74.617,4.519,111.742
		C2433.339,3544.328,2438.47,3585.671,2470.66,3628.443z M2286.327,3605.146c-1.776-38.559-4.506-92.181-6.599-145.828
		c-0.972-24.897-13.45-40.586-36.356-48.158c-25.438-8.411-50.644-19.679-76.835-23.297
		c-158.673-21.92-317.555-42.35-476.454-62.598c-123.683-15.765-247.348-31.859-371.297-45.252
		c-76.446-8.258-153.351-14.219-230.173-16.069c-29.092-0.701-59.72,10.032-87.512,20.974
		c-34.706,13.666-54.767,41.594-56.027,80.411c-2.559,78.86-4.854,157.73-7.367,236.596c-0.641,20.095,5.583,35.794,21.216,50.228
		c33.09,30.554,64.845,62.678,95.582,95.621c39.674,42.522,76.762,87.027,100.119,141.538c3.047,7.115,17.698,13.951,26.221,13.128
		c23.985-2.323,47.612-8.539,71.318-13.524c37.636-7.913,65.743-25.553,81.058-64.259c17.638-44.576,53.805-72.345,101.95-73.203
		c135.99-2.414,272.148-4.874,408.02-0.483c64.254,2.079,89.1,38.792,92.005,103.864c0.79,17.696,4.989,35.814,10.971,52.54
		c5.634,15.76,17.347,20.572,35.435,13.62c99.881-38.406,194.313-87.226,283.461-146.184c7.074-4.681,13.036-15.938,13.705-24.588
		C2282.108,3707.029,2283.509,3663.677,2286.327,3605.146z M2690.312,2735.667c51.43-2.825,96.712-9.656,141.318-6.606
		c50.095,3.42,73.081-22.189,88.406-62.912c28.204-74.942,37.148-152.924,34.605-232.292c-1.995-62.221-9.285-73.152-70.371-86.442
		c-79.401-17.274-159.252-35.164-239.871-43.585c-148.016-15.46-296.621-26.122-445.212-34.854
		c-66.288-3.893-96.647,25.686-97.069,93.136c-0.345,54.903,10.008,109.826,14.701,164.815
		c6.545,76.695,52.771,118.812,121.496,141.991c11.476,3.872,22.793,8.273,34.411,11.648
		C2411.219,2720.76,2553.919,2727.931,2690.312,2735.667z M1394.512,2596.984c0.15-1.128,0.3-2.262,0.45-3.395
		c36.334-2.155,72.642-5.031,109.006-6.236c31.824-1.057,60.394-11.114,82.791-32.744c79.369-76.649,112.68-170.309,98.643-280.125
		c-2.848-22.275-14.859-39.306-35.963-47.31c-29.854-11.323-59.75-23.658-90.735-30.676
		c-149.475-33.842-301.719-43.463-454.354-47.163c-56.261-1.362-112.627,1.86-168.949,2.739
		c-30.801,0.478-49.739,17.717-62.003,43.768c-6.238,13.254-11.875,27.012-15.781,41.1
		c-20.475,73.834-21.094,148.675-11.812,224.292c4.365,35.555,22.334,60.809,53.72,73.951c30.882,12.929,63.342,26.6,96.093,29.761
		C1128.376,2577.758,1261.514,2586.652,1394.512,2596.984z"/>
	<path fill-rule="evenodd" clip-rule="evenodd" d="M1698.659,2044.256c0.313-0.147,5.328-2.562,10.345-4.971
		c-2.887-5.367-5.089-11.292-8.897-15.892c-2.556-3.085-7.347-4.371-11.211-6.312c-151.904-76.436-311.576-119.894-482.916-111.716
		c-110.711,5.286-218.443,24.923-319.11,73.819c-7.099,3.451-11.425,12.604-17.04,19.104c7.79,1.926,15.688,5.88,23.351,5.468
		c77.017-4.142,153.981-9.224,230.985-13.6c130.839-7.44,261.46-11.374,390.811,17.422
		C1574.095,2020.741,1633.773,2031.388,1698.659,2044.256z M2237.48,2045.151c0.036-0.529,0.071-1.052,0.106-1.576
		c76.916-4.777,153.783-10.815,230.769-13.773c35.829-1.377,73.025-1.738,107.585,6.211
		c57.126,13.137,112.531,33.669,168.885,50.323c8.041,2.374,17.336,0.503,26.052,0.6c-3.413-8.146-4.871-18.174-10.578-24.12
		c-23.366-24.329-48.822-46.66-72.038-71.12c-40.911-43.112-91.153-55.258-148.727-52.082
		c-141.181,7.786-276.3,44.591-411.177,82.896c-6.068,1.723-10.568,8.97-15.8,13.646c6.147,2.999,12.236,8.441,18.449,8.589
		C2166.481,2045.578,2201.985,2045.151,2237.48,2045.151z"/>
	<path fill-rule="evenodd" clip-rule="evenodd" d="M1698.659,2044.256c-64.886-12.868-124.564-23.516-183.683-36.678
		c-129.351-28.795-259.972-24.862-390.811-17.422c-77.004,4.376-153.968,9.458-230.985,13.6c-7.663,0.412-15.561-3.542-23.351-5.468
		c5.615-6.5,9.941-15.653,17.04-19.104c100.667-48.896,208.398-68.533,319.11-73.819c171.34-8.177,331.012,35.281,482.916,111.716
		c3.864,1.941,8.655,3.228,11.211,6.312c3.809,4.599,6.011,10.525,8.897,15.892
		C1703.987,2041.695,1698.973,2044.109,1698.659,2044.256z"/>
	<path fill-rule="evenodd" clip-rule="evenodd" d="M2237.48,2045.151c-35.495,0-70.999,0.427-106.474-0.407
		c-6.213-0.147-12.302-5.59-18.449-8.589c5.231-4.676,9.731-11.923,15.8-13.646c134.877-38.305,269.996-75.11,411.177-82.896
		c57.573-3.176,107.815,8.97,148.727,52.082c23.216,24.46,48.672,46.792,72.038,71.12c5.707,5.946,7.165,15.973,10.578,24.12
		c-8.716-0.096-18.011,1.774-26.052-0.6c-56.354-16.654-111.759-37.186-168.885-50.323c-34.56-7.949-71.756-7.588-107.585-6.211
		c-76.985,2.958-153.853,8.996-230.769,13.773C2237.552,2044.099,2237.517,2044.622,2237.48,2045.151z"/>
</g>
</svg>
